<?xml version="1.0" encoding="utf-8"?>
<!-- Generator: Adobe Illustrator 21.1.0, SVG Export Plug-In . SVG Version: 6.00 Build 0)  -->
<svg version="1.1" id="Calque_2" xmlns="http://www.w3.org/2000/svg" x="0px" y="0px"
	 viewBox="0 0 300 300" style="enable-background:new 0 0 300 300;" xml:space="preserve">
<style type="text/css">
	.st0{fill:#FFFFFF;}
	.st1{enable-background:new    ;}
	.st2{fill:#223A72;}
</style>
<g>
	<g>
		<ellipse class="st0" cx="149.8" cy="137.4" rx="146.7" ry="79.5"/>
		<path class="st0" d="M149.8,217.6c-81.3,0-147.5-36-147.5-80.2s66.2-80.2,147.5-80.2s147.5,36,147.5,80.2S231.2,217.6,149.8,217.6
			z M149.8,58.7c-80.5,0-146,35.3-146,78.7s65.5,78.7,146,78.7s146-35.3,146-78.7S230.3,58.7,149.8,58.7z"/>
	</g>
	<g>
		<path class="st0" d="M231.4,230.6l-20.4-8c-3.6-1.4-6.8-3.5-9.6-6.1l-6.7-6.4c-1.7-1.6-1.4-4.3,0.6-5.5l29.8-17.7
			c2.4-1.4,5.4,0.4,5.2,3.2c-0.4,5.4-1.8,10.7-0.9,16.3c1,6.5,6,13.7,7.5,20.2c0.4,1.6-0.4,3.3-2,4l0,0
			C233.8,231.3,232.6,231.3,231.4,230.6z"/>
		<path class="st0" d="M233.4,231.9c-0.8,0-1.6-0.2-2.3-0.6l-20.3-7.9c-3.7-1.4-7-3.5-9.8-6.2l-6.7-6.4c-1-0.9-1.4-2.2-1.3-3.5
			c0.1-1.3,0.9-2.5,2-3.1l29.8-17.7c1.4-0.8,3-0.8,4.3,0s2.1,2.3,2,3.9c-0.1,1.7-0.3,3.5-0.6,5.1c-0.5,3.7-1,7.3-0.4,11
			c0.5,3.4,2.2,7,3.8,10.6c1.4,3.2,2.9,6.5,3.7,9.6c0.5,2-0.6,4-2.4,4.8C234.6,231.8,234,231.9,233.4,231.9z M226.9,187.3
			c-0.5,0-0.9,0.1-1.4,0.4l-29.8,17.7c-0.7,0.4-1.2,1.2-1.3,2s0.2,1.7,0.8,2.3l6.7,6.4c2.7,2.6,5.9,4.6,9.4,5.9l20.5,8
			c0.9,0.5,1.9,0.6,2.8,0.2c1.2-0.5,1.8-1.8,1.5-3.1c-0.7-3-2.2-6.2-3.6-9.3c-1.7-3.6-3.4-7.4-3.9-10.9c-0.6-4-0.1-7.8,0.4-11.5
			c0.2-1.6,0.4-3.3,0.6-5c0.1-1-0.4-2-1.3-2.5C227.8,187.5,227.3,187.3,226.9,187.3z"/>
	</g>
	<g class="st1">
		<path class="st2" d="M44.9,116.8v-3.3c0.7,0.5,1.5,0.7,2.3,0.7c1.5,0,2.2-0.8,2.2-2.4V98.1H53v13.8c0,1.8-0.5,3.2-1.4,4.1
			s-2.2,1.4-3.8,1.4C46.7,117.4,45.7,117.2,44.9,116.8z"/>
		<path class="st2" d="M67.9,113.6v3c-1,0.6-2.5,0.9-4.4,0.9c-2.3,0-4.1-0.7-5.5-2.1c-1.3-1.4-2-3.2-2-5.3c0-2.3,0.6-4.1,1.9-5.5
			c1.3-1.3,2.8-2,4.7-2c1.9,0,3.4,0.6,4.5,1.7s1.7,2.8,1.7,5c0,0.5-0.1,1.2-0.2,2.1h-9.1c0.2,1.1,0.8,1.9,1.6,2.4
			c0.8,0.6,1.8,0.8,3,0.8C65.6,114.8,66.9,114.4,67.9,113.6z M65.6,108.9v-0.4c0-0.9-0.3-1.7-0.8-2.3c-0.5-0.6-1.2-0.8-2.1-0.8
			c-0.8,0-1.5,0.3-2.1,0.9s-1,1.5-1.2,2.6H65.6z"/>
		<path class="st2" d="M81.9,110.2c0,1.4,0.5,2.5,1.3,3.3c0.8,0.8,1.9,1.3,3.2,1.3c1.2,0,2.3-0.3,3.3-1v3c-1,0.6-2.3,0.9-3.8,0.9
			c-2.2,0-4.1-0.7-5.4-2.1c-1.4-1.4-2.1-3.2-2.1-5.4c0-2.1,0.7-3.9,2.1-5.4c1.4-1.5,3.2-2.2,5.6-2.2c1.4,0,2.6,0.3,3.6,0.8v3
			c-1-0.6-2-0.9-3.3-0.9c-1.3,0-2.4,0.4-3.2,1.3S81.9,108.8,81.9,110.2z"/>
		<path class="st2" d="M96.1,102.8v2.6c0.7-1.8,1.9-2.7,3.7-2.7c0.4,0,0.7,0,1,0.1v3.3c-0.4-0.2-0.9-0.3-1.5-0.3
			c-0.9,0-1.7,0.4-2.3,1.1c-0.6,0.8-0.9,1.7-0.9,2.9v7.5h-3.5l0-14.6H96.1z"/>
		<path class="st2" d="M109,117.6c-2.2,0-3.9-0.7-5.2-2.1c-1.2-1.4-1.9-3.1-1.9-5.3c0-2.2,0.6-4.1,1.9-5.5c1.3-1.4,3-2.2,5.1-2.2
			c2.2,0,4,0.7,5.2,2.1c1.2,1.4,1.8,3.2,1.8,5.4c0,2.2-0.6,4-1.9,5.4C113,116.9,111.2,117.6,109,117.6z M109,105.4
			c-1.1,0-1.9,0.5-2.5,1.4s-0.9,2-0.9,3.4c0,1.3,0.3,2.5,0.9,3.4c0.6,0.9,1.4,1.4,2.5,1.4c1.1,0,2-0.4,2.6-1.3
			c0.6-0.9,0.9-2,0.9-3.4c0-1.4-0.3-2.5-0.8-3.4S110.2,105.4,109,105.4z"/>
		<path class="st2" d="M118.8,98.5c0-0.6,0.2-1.1,0.6-1.5s0.9-0.6,1.5-0.6s1.1,0.2,1.5,0.6s0.6,0.9,0.6,1.5c0,0.6-0.2,1.1-0.6,1.5
			s-0.9,0.6-1.5,0.6s-1.1-0.2-1.5-0.6S118.8,99.1,118.8,98.5z M119.2,117.4v-14.6h3.4v14.6H119.2z"/>
		<path class="st2" d="M135.2,103.3v3c-1-0.6-2.2-0.9-3.6-0.9c-0.6,0-1.1,0.1-1.4,0.4s-0.5,0.6-0.5,1c0,0.2,0,0.3,0.1,0.4
			c0,0.1,0.1,0.3,0.3,0.4c0.1,0.1,0.2,0.2,0.4,0.3s0.3,0.2,0.5,0.3s0.4,0.2,0.5,0.3c0.2,0.1,0.4,0.2,0.6,0.3
			c0.3,0.1,0.5,0.2,0.6,0.3c1,0.5,1.8,1.1,2.4,1.7c0.6,0.6,0.9,1.4,0.9,2.4c0,1.4-0.5,2.4-1.5,3.2c-1,0.8-2.3,1.1-3.9,1.1
			c-1.8,0-3.3-0.3-4.4-0.9v-3.2c1.3,0.9,2.7,1.3,4.2,1.3c0.6,0,1.1-0.1,1.5-0.4s0.5-0.6,0.5-1c0-0.2-0.1-0.5-0.2-0.7
			s-0.3-0.4-0.7-0.6s-0.6-0.3-0.8-0.4c-0.2-0.1-0.5-0.2-1.1-0.5c-0.1,0-0.1,0-0.1-0.1c0,0-0.1,0-0.1-0.1c-0.1,0-0.1,0-0.1-0.1
			c-2.1-1-3.2-2.3-3.2-4.1c0-1.3,0.5-2.4,1.5-3.2c1-0.8,2.3-1.1,3.8-1.1C133,102.7,134.2,102.9,135.2,103.3z"/>
		<path class="st2" d="M149.4,97.1v8c1-1.6,2.5-2.4,4.4-2.4c1.8,0,3.3,0.7,4.5,2c1.2,1.4,1.8,3.2,1.8,5.5c0,2.1-0.6,3.8-1.7,5.3
			c-1.1,1.5-2.6,2.2-4.6,2.2c-1.9,0-3.4-0.8-4.4-2.4v2.2h-3.5V97.1H149.4z M153,114.7c1,0,1.8-0.4,2.5-1.2c0.7-0.8,1-1.9,1-3.2
			c0-1.5-0.3-2.6-1-3.4c-0.7-0.8-1.5-1.2-2.5-1.2c-0.9,0-1.8,0.4-2.5,1.1c-0.7,0.7-1.1,1.8-1.1,3.3c0,1.5,0.3,2.7,1,3.5
			C151.1,114.3,152,114.7,153,114.7z"/>
		<path class="st2" d="M162.8,98.5c0-0.6,0.2-1.1,0.6-1.5s0.9-0.6,1.5-0.6c0.6,0,1.1,0.2,1.5,0.6s0.6,0.9,0.6,1.5
			c0,0.6-0.2,1.1-0.6,1.5s-0.9,0.6-1.5,0.6c-0.6,0-1.1-0.2-1.5-0.6S162.8,99.1,162.8,98.5z M163.1,117.4v-14.6h3.4v14.6H163.1z"/>
		<path class="st2" d="M181.6,113.6v3c-1,0.6-2.5,0.9-4.4,0.9c-2.3,0-4.1-0.7-5.5-2.1c-1.3-1.4-2-3.2-2-5.3c0-2.3,0.6-4.1,1.9-5.5
			c1.3-1.3,2.8-2,4.7-2s3.4,0.6,4.5,1.7c1.1,1.1,1.7,2.8,1.7,5c0,0.5-0.1,1.2-0.2,2.1h-9.1c0.2,1.1,0.8,1.9,1.6,2.4s1.8,0.8,3,0.8
			C179.2,114.8,180.5,114.4,181.6,113.6z M179.2,108.9v-0.4c0-0.9-0.3-1.7-0.8-2.3c-0.5-0.6-1.2-0.8-2.1-0.8c-0.8,0-1.5,0.3-2.1,0.9
			s-1,1.5-1.2,2.6H179.2z"/>
		<path class="st2" d="M189.1,102.8v2.5c0.8-1.8,2.3-2.7,4.5-2.7c1.5,0,2.6,0.4,3.4,1.3c0.8,0.9,1.3,2.1,1.3,3.7v9.7h-3.4v-9
			c0-1-0.2-1.7-0.7-2.2c-0.5-0.5-1.1-0.7-1.9-0.7c-0.9,0-1.7,0.4-2.3,1c-0.6,0.7-0.9,1.7-0.9,3v7.8h-3.4v-14.6H189.1z"/>
		<path class="st2" d="M218.9,102.8h3.4v20.1h-3.4v-7.7c-1,1.6-2.5,2.4-4.4,2.4c-1.9,0-3.4-0.7-4.6-2.1c-1.1-1.4-1.7-3.2-1.7-5.4
			c0-2.2,0.6-4,1.7-5.4s2.7-2,4.6-2s3.4,0.8,4.4,2.4V102.8z M215.3,114.7c1,0,1.8-0.4,2.5-1.2c0.7-0.8,1-1.9,1-3.4
			c0-1.5-0.4-2.6-1.1-3.3c-0.7-0.7-1.6-1.1-2.6-1.1c-1,0-1.8,0.4-2.5,1.2c-0.7,0.8-1,1.9-1,3.3s0.3,2.5,1,3.3
			S214.3,114.7,215.3,114.7z"/>
		<path class="st2" d="M235.1,102.8h3.5v14.6h-3.5V115c-0.8,1.7-2.3,2.5-4.5,2.5c-1.5,0-2.6-0.4-3.4-1.3s-1.2-2-1.2-3.6v-9.9h3.4
			v9.1c0,0.9,0.2,1.6,0.7,2.1s1.1,0.7,1.9,0.7c1,0,1.8-0.3,2.3-1c0.6-0.7,0.8-1.7,0.8-3V102.8z"/>
		<path class="st2" d="M253.4,113.6v3c-1,0.6-2.5,0.9-4.4,0.9c-2.3,0-4.1-0.7-5.5-2.1c-1.3-1.4-2-3.2-2-5.3c0-2.3,0.6-4.1,1.9-5.5
			c1.3-1.3,2.8-2,4.7-2s3.4,0.6,4.5,1.7c1.1,1.1,1.7,2.8,1.7,5c0,0.5-0.1,1.2-0.2,2.1H245c0.2,1.1,0.8,1.9,1.6,2.4s1.8,0.8,3,0.8
			C251.1,114.8,252.4,114.4,253.4,113.6z M251.1,108.9v-0.4c0-0.9-0.3-1.7-0.8-2.3c-0.5-0.6-1.2-0.8-2.1-0.8c-0.8,0-1.5,0.3-2.1,0.9
			s-1,1.5-1.2,2.6H251.1z"/>
	</g>
	<g class="st1">
		<path class="st2" d="M68.9,137.3v2.5c0.8-1.8,2.3-2.7,4.5-2.7c1.5,0,2.6,0.4,3.4,1.3c0.8,0.9,1.3,2.1,1.3,3.7v9.7h-3.4v-9
			c0-1-0.2-1.7-0.7-2.2c-0.5-0.5-1.1-0.7-1.9-0.7c-0.9,0-1.7,0.4-2.3,1c-0.6,0.7-0.9,1.7-0.9,3v7.8h-3.4v-14.6H68.9z"/>
		<path class="st2" d="M87.9,152.1c-2.2,0-3.9-0.7-5.2-2.1c-1.2-1.4-1.9-3.1-1.9-5.3c0-2.2,0.6-4.1,1.9-5.5c1.3-1.4,3-2.2,5.1-2.2
			c2.2,0,4,0.7,5.2,2.1c1.2,1.4,1.8,3.2,1.8,5.4c0,2.2-0.6,4-1.9,5.4C91.8,151.4,90.1,152.1,87.9,152.1z M87.9,139.9
			c-1.1,0-1.9,0.5-2.5,1.4s-0.9,2-0.9,3.4c0,1.3,0.3,2.5,0.9,3.4c0.6,0.9,1.4,1.4,2.5,1.4c1.1,0,2-0.4,2.6-1.3
			c0.6-0.9,0.9-2,0.9-3.4c0-1.4-0.3-2.5-0.8-3.4S89.1,139.9,87.9,139.9z"/>
		<path class="st2" d="M106.9,137.3h3.5v14.6h-3.5v-2.4c-0.8,1.7-2.3,2.5-4.5,2.5c-1.5,0-2.6-0.4-3.4-1.3c-0.8-0.8-1.2-2-1.2-3.6
			v-9.9h3.4v9.1c0,0.9,0.2,1.6,0.7,2.1c0.4,0.5,1.1,0.7,1.9,0.7c1,0,1.8-0.3,2.3-1c0.6-0.7,0.8-1.7,0.8-3V137.3z"/>
		<path class="st2" d="M122.8,137.8v3c-1-0.6-2.2-0.9-3.6-0.9c-0.6,0-1.1,0.1-1.4,0.4s-0.5,0.6-0.5,1c0,0.2,0,0.3,0.1,0.4
			c0,0.1,0.1,0.3,0.3,0.4c0.1,0.1,0.2,0.2,0.4,0.3s0.3,0.2,0.5,0.3s0.4,0.2,0.5,0.3c0.2,0.1,0.4,0.2,0.6,0.3
			c0.3,0.1,0.5,0.2,0.6,0.3c1,0.5,1.8,1.1,2.4,1.7c0.6,0.6,0.9,1.4,0.9,2.4c0,1.4-0.5,2.4-1.5,3.2c-1,0.8-2.3,1.1-3.9,1.1
			c-1.8,0-3.3-0.3-4.4-0.9V148c1.3,0.9,2.7,1.3,4.2,1.3c0.6,0,1.1-0.1,1.5-0.4s0.5-0.6,0.5-1c0-0.2-0.1-0.5-0.2-0.7
			s-0.3-0.4-0.7-0.6s-0.6-0.3-0.8-0.4c-0.2-0.1-0.5-0.2-1.1-0.5c-0.1,0-0.1,0-0.1-0.1c0,0-0.1,0-0.1-0.1c-0.1,0-0.1,0-0.1-0.1
			c-2.1-1-3.2-2.3-3.2-4.1c0-1.3,0.5-2.4,1.5-3.2c1-0.8,2.3-1.1,3.8-1.1C120.6,137.2,121.9,137.4,122.8,137.8z"/>
		<path class="st2" d="M142.2,137.8v3c-1-0.6-2.2-0.9-3.6-0.9c-0.6,0-1.1,0.1-1.4,0.4s-0.5,0.6-0.5,1c0,0.2,0,0.3,0.1,0.4
			c0,0.1,0.1,0.3,0.3,0.4c0.1,0.1,0.2,0.2,0.4,0.3s0.3,0.2,0.5,0.3s0.4,0.2,0.5,0.3c0.2,0.1,0.4,0.2,0.6,0.3
			c0.3,0.1,0.5,0.2,0.6,0.3c1,0.5,1.8,1.1,2.4,1.7c0.6,0.6,0.9,1.4,0.9,2.4c0,1.4-0.5,2.4-1.5,3.2c-1,0.8-2.3,1.1-3.9,1.1
			c-1.8,0-3.3-0.3-4.4-0.9V148c1.3,0.9,2.7,1.3,4.2,1.3c0.6,0,1.1-0.1,1.5-0.4s0.5-0.6,0.5-1c0-0.2-0.1-0.5-0.2-0.7
			s-0.3-0.4-0.7-0.6s-0.6-0.3-0.8-0.4c-0.2-0.1-0.5-0.2-1.1-0.5c-0.1,0-0.1,0-0.1-0.1c0,0-0.1,0-0.1-0.1c-0.1,0-0.1,0-0.1-0.1
			c-2.1-1-3.2-2.3-3.2-4.1c0-1.3,0.5-2.4,1.5-3.2c1-0.8,2.3-1.1,3.8-1.1C140,137.2,141.2,137.4,142.2,137.8z"/>
		<path class="st2" d="M152,152.1c-2.2,0-3.9-0.7-5.2-2.1c-1.2-1.4-1.9-3.1-1.9-5.3c0-2.2,0.6-4.1,1.9-5.5c1.3-1.4,3-2.2,5.1-2.2
			c2.2,0,4,0.7,5.2,2.1c1.2,1.4,1.8,3.2,1.8,5.4c0,2.2-0.6,4-1.9,5.4C156,151.4,154.2,152.1,152,152.1z M152,139.9
			c-1.1,0-1.9,0.5-2.5,1.4s-0.9,2-0.9,3.4c0,1.3,0.3,2.5,0.9,3.4c0.6,0.9,1.4,1.4,2.5,1.4c1.1,0,2-0.4,2.6-1.3
			c0.6-0.9,0.9-2,0.9-3.4c0-1.4-0.3-2.5-0.8-3.4S153.2,139.9,152,139.9z"/>
		<path class="st2" d="M165.5,137.3v2.3c0.8-1.6,2.2-2.5,4.1-2.5c2.1,0,3.5,0.9,4.1,2.8c0.4-0.9,1-1.6,1.7-2
			c0.8-0.5,1.6-0.7,2.6-0.7c1.5,0,2.6,0.4,3.4,1.3c0.8,0.9,1.2,2.2,1.2,3.8v9.6h-3.5V143c0-2-0.7-2.9-2.2-2.9c-0.7,0-1.4,0.3-2,1
			s-0.9,1.7-0.9,3.1v7.8h-3.5V143c0-2-0.7-2.9-2.2-2.9c-0.7,0-1.4,0.3-2,1s-0.9,1.7-0.9,3.1v7.8H162v-14.6H165.5z"/>
		<path class="st2" d="M189.7,137.3v2.3c0.8-1.6,2.2-2.5,4.1-2.5c2.1,0,3.5,0.9,4.1,2.8c0.4-0.9,1-1.6,1.7-2
			c0.8-0.5,1.6-0.7,2.6-0.7c1.5,0,2.6,0.4,3.4,1.3c0.8,0.9,1.2,2.2,1.2,3.8v9.6h-3.5V143c0-2-0.7-2.9-2.2-2.9c-0.7,0-1.4,0.3-2,1
			s-0.9,1.7-0.9,3.1v7.8h-3.5V143c0-2-0.7-2.9-2.2-2.9c-0.7,0-1.4,0.3-2,1s-0.9,1.7-0.9,3.1v7.8h-3.4v-14.6H189.7z"/>
		<path class="st2" d="M221.6,148.1v3c-1,0.6-2.5,0.9-4.4,0.9c-2.3,0-4.1-0.7-5.5-2.1c-1.3-1.4-2-3.2-2-5.3c0-2.3,0.6-4.1,1.9-5.5
			c1.3-1.3,2.8-2,4.7-2s3.4,0.6,4.5,1.7c1.1,1.1,1.7,2.8,1.7,5c0,0.5-0.1,1.2-0.2,2.1h-9.1c0.2,1.1,0.8,1.9,1.6,2.4s1.8,0.8,3,0.8
			C219.2,149.3,220.5,148.9,221.6,148.1z M219.2,143.4V143c0-0.9-0.3-1.7-0.8-2.3c-0.5-0.6-1.2-0.8-2.1-0.8c-0.8,0-1.5,0.3-2.1,0.9
			s-1,1.5-1.2,2.6H219.2z"/>
		<path class="st2" d="M234.4,137.8v3c-1-0.6-2.2-0.9-3.6-0.9c-0.6,0-1.1,0.1-1.4,0.4s-0.5,0.6-0.5,1c0,0.2,0,0.3,0.1,0.4
			c0,0.1,0.1,0.3,0.3,0.4c0.1,0.1,0.2,0.2,0.4,0.3c0.1,0.1,0.3,0.2,0.5,0.3s0.4,0.2,0.5,0.3c0.2,0.1,0.4,0.2,0.6,0.3
			c0.3,0.1,0.5,0.2,0.6,0.3c1,0.5,1.8,1.1,2.4,1.7c0.6,0.6,0.9,1.4,0.9,2.4c0,1.4-0.5,2.4-1.5,3.2c-1,0.8-2.3,1.1-3.9,1.1
			c-1.8,0-3.3-0.3-4.4-0.9V148c1.3,0.9,2.7,1.3,4.2,1.3c0.6,0,1.1-0.1,1.5-0.4s0.5-0.6,0.5-1c0-0.2-0.1-0.5-0.2-0.7
			c-0.1-0.2-0.3-0.4-0.7-0.6c-0.3-0.2-0.6-0.3-0.8-0.4c-0.2-0.1-0.5-0.2-1.1-0.5c-0.1,0-0.1,0-0.1-0.1c0,0-0.1,0-0.1-0.1
			c-0.1,0-0.1,0-0.1-0.1c-2.1-1-3.2-2.3-3.2-4.1c0-1.3,0.5-2.4,1.5-3.2c1-0.8,2.3-1.1,3.8-1.1C232.2,137.2,233.4,137.4,234.4,137.8z
			"/>
	</g>
	<g class="st1">
		<path class="st2" d="M104.2,171.8v2.2c1-1.6,2.5-2.4,4.5-2.4c1.9,0,3.4,0.7,4.5,2s1.7,3.2,1.7,5.4c0,2.2-0.6,4-1.7,5.4
			s-2.6,2.1-4.6,2.1c-2,0-3.4-0.8-4.4-2.4v7.7h-3.4v-20.1H104.2z M107.8,183.7c1,0,1.9-0.4,2.5-1.2c0.7-0.8,1-1.9,1-3.3
			c0-1.4-0.3-2.6-1-3.3s-1.5-1.2-2.5-1.2c-1,0-1.9,0.4-2.6,1.1c-0.7,0.7-1.1,1.9-1.1,3.3c0,1.5,0.4,2.6,1.1,3.4
			C105.9,183.2,106.8,183.7,107.8,183.7z"/>
		<path class="st2" d="M128.9,182.6v3c-1,0.6-2.5,0.9-4.4,0.9c-2.3,0-4.1-0.7-5.5-2.1c-1.3-1.4-2-3.2-2-5.3c0-2.3,0.6-4.1,1.9-5.5
			c1.3-1.3,2.8-2,4.7-2c1.9,0,3.4,0.6,4.5,1.7s1.7,2.8,1.7,5c0,0.5-0.1,1.2-0.2,2.1h-9.1c0.2,1.1,0.8,1.9,1.6,2.4
			c0.8,0.6,1.8,0.8,3,0.8C126.6,183.8,127.9,183.4,128.9,182.6z M126.6,177.9v-0.4c0-0.9-0.3-1.7-0.8-2.3c-0.5-0.6-1.2-0.8-2.1-0.8
			c-0.8,0-1.5,0.3-2.1,0.9s-1,1.5-1.2,2.6H126.6z"/>
		<path class="st2" d="M136.4,171.8v2.6c0.7-1.8,1.9-2.7,3.7-2.7c0.4,0,0.7,0,1,0.1v3.3c-0.4-0.2-0.9-0.3-1.5-0.3
			c-0.9,0-1.7,0.4-2.3,1.1c-0.6,0.8-0.9,1.7-0.9,2.9v7.5H133l0-14.6H136.4z"/>
		<path class="st2" d="M153,166.1h3.4v20.3H153v-2.3c-1,1.6-2.5,2.5-4.4,2.5c-1.9,0-3.4-0.7-4.6-2.2s-1.7-3.2-1.7-5.3
			c0-2.3,0.6-4.1,1.8-5.5s2.7-2,4.5-2c1.9,0,3.4,0.8,4.4,2.4V166.1z M149.4,183.7c1,0,1.9-0.4,2.6-1.2c0.7-0.8,1-1.9,1-3.5
			c0-1.5-0.4-2.6-1.1-3.3c-0.7-0.7-1.6-1.1-2.5-1.1c-1,0-1.8,0.4-2.5,1.2c-0.7,0.8-1,1.9-1,3.4c0,1.3,0.3,2.4,1,3.2
			C147.6,183.2,148.4,183.7,149.4,183.7z"/>
		<path class="st2" d="M169.2,171.8h3.5v14.6h-3.5V184c-0.8,1.7-2.3,2.5-4.5,2.5c-1.5,0-2.6-0.4-3.4-1.3c-0.8-0.8-1.2-2-1.2-3.6
			v-9.9h3.4v9.1c0,0.9,0.2,1.6,0.7,2.1c0.4,0.5,1.1,0.7,1.9,0.7c1,0,1.8-0.3,2.3-1c0.6-0.7,0.8-1.7,0.8-3V171.8z"/>
		<path class="st2" d="M185.1,172.3v3c-1-0.6-2.2-0.9-3.6-0.9c-0.6,0-1.1,0.1-1.4,0.4s-0.5,0.6-0.5,1c0,0.2,0,0.3,0.1,0.4
			c0,0.1,0.1,0.3,0.3,0.4c0.1,0.1,0.2,0.2,0.4,0.3c0.1,0.1,0.3,0.2,0.5,0.3s0.4,0.2,0.5,0.3c0.2,0.1,0.4,0.2,0.6,0.3
			c0.3,0.1,0.5,0.2,0.6,0.3c1,0.5,1.8,1.1,2.4,1.7c0.6,0.6,0.9,1.4,0.9,2.4c0,1.4-0.5,2.4-1.5,3.2c-1,0.8-2.3,1.1-3.9,1.1
			c-1.8,0-3.3-0.3-4.4-0.9v-3.2c1.3,0.9,2.7,1.3,4.2,1.3c0.6,0,1.1-0.1,1.5-0.4s0.5-0.6,0.5-1c0-0.2-0.1-0.5-0.2-0.7
			c-0.1-0.2-0.3-0.4-0.7-0.6c-0.3-0.2-0.6-0.3-0.8-0.4c-0.2-0.1-0.5-0.2-1.1-0.5c-0.1,0-0.1,0-0.1-0.1c0,0-0.1,0-0.1-0.1
			c-0.1,0-0.1,0-0.1-0.1c-2.1-1-3.2-2.3-3.2-4.1c0-1.3,0.5-2.4,1.5-3.2c1-0.8,2.3-1.1,3.8-1.1C182.9,171.7,184.2,171.9,185.1,172.3z
			"/>
		<path class="st2" d="M195.6,186c-0.4-0.4-0.7-1-0.7-1.6c0-0.6,0.2-1.1,0.7-1.6s1-0.6,1.6-0.6c0.6,0,1.1,0.2,1.6,0.6s0.6,1,0.6,1.6
			c0,0.6-0.2,1.1-0.6,1.6s-1,0.7-1.6,0.7C196.6,186.6,196,186.4,195.6,186z"/>
		<path class="st2" d="M202,186c-0.4-0.4-0.7-1-0.7-1.6c0-0.6,0.2-1.1,0.7-1.6s1-0.6,1.6-0.6c0.6,0,1.1,0.2,1.6,0.6s0.6,1,0.6,1.6
			c0,0.6-0.2,1.1-0.6,1.6s-1,0.7-1.6,0.7C203,186.6,202.4,186.4,202,186z"/>
		<path class="st2" d="M208.4,186c-0.4-0.4-0.7-1-0.7-1.6c0-0.6,0.2-1.1,0.7-1.6s1-0.6,1.6-0.6c0.6,0,1.1,0.2,1.6,0.6s0.6,1,0.6,1.6
			c0,0.6-0.2,1.1-0.6,1.6s-1,0.7-1.6,0.7C209.4,186.6,208.8,186.4,208.4,186z"/>
	</g>
</g>
</svg>
